<?xml version="1.0" standalone="no"?>
<!DOCTYPE svg PUBLIC "-//W3C//DTD SVG 20010904//EN"
 "http://www.w3.org/TR/2001/REC-SVG-20010904/DTD/svg10.dtd">
<svg version="1.0" xmlns="http://www.w3.org/2000/svg"
 width="1200.000000pt" height="1200.000000pt" viewBox="0 0 1200.000000 1200.000000"
 preserveAspectRatio="xMidYMid meet">

<g transform="translate(0.000000,1200.000000) scale(0.100000,-0.100000)"
fill="#000000" stroke="none">
<path d="M6810 635 c0 -22 -5 -25 -37 -26 -21 -1 -56 -1 -79 0 -31 2 -48 -4
-72 -24 -78 -66 -6 -199 90 -166 32 11 34 9 12 -13 -20 -20 -58 -21 -74 -1
-15 19 -50 20 -50 2 0 -28 41 -52 87 -52 37 0 49 5 69 28 21 25 24 38 24 108
0 64 3 79 15 79 12 0 15 -13 15 -55 0 -67 21 -93 74 -93 l36 0 0 63 c0 57 3
65 27 83 27 20 25 44 -5 41 -10 -1 -33 -1 -53 0 -33 1 -36 3 -31 26 4 22 1 25
-22 25 -21 0 -26 -5 -26 -25z m-79 -89 c15 -32 4 -73 -22 -87 -48 -25 -95 33
-70 87 8 19 18 24 46 24 28 0 38 -5 46 -24z m149 -32 c0 -72 -22 -69 -24 4 -1
36 3 52 12 52 8 0 12 -18 12 -56z"/>
<path d="M6217 603 c-9 -8 -9 -206 -1 -227 12 -30 34 -18 34 18 0 35 0 35 31
24 42 -15 95 10 114 55 l14 32 1 -42 c0 -36 3 -43 20 -43 17 0 20 7 20 49 0
27 4 62 10 76 8 22 15 26 42 23 l33 -3 3 -72 c3 -66 5 -73 24 -73 19 0 20 5
16 74 -5 101 -18 116 -104 114 l-64 -1 0 -41 0 -41 -15 29 c-9 16 -23 35 -33
42 -21 17 -84 18 -100 2 -9 -9 -12 -9 -12 0 0 13 -22 16 -33 5z m137 -55 c9
-12 16 -29 16 -37 0 -21 -40 -61 -62 -61 -25 0 -58 35 -58 62 0 53 74 79 104
36z"/>
<path d="M6986 579 c-38 -45 -35 -92 8 -135 38 -38 69 -43 106 -17 27 18 49
43 50 56 0 14 -31 7 -61 -15 -28 -21 -32 -21 -56 -8 -51 29 -40 40 41 40 74 0
76 -1 91 -30 20 -38 68 -64 104 -55 49 12 96 75 56 75 -8 0 -24 -9 -35 -20
-26 -26 -55 -25 -82 3 l-23 22 80 5 80 5 -3 30 c-4 41 -44 75 -88 75 -47 0
-73 -15 -89 -53 -8 -18 -14 -25 -15 -18 0 8 -12 28 -27 43 -21 22 -36 28 -69
28 -35 0 -47 -5 -68 -31z m114 -29 c10 -19 8 -20 -45 -20 -30 0 -55 4 -55 8 0
35 83 45 100 12z m195 0 c18 -20 17 -20 -43 -20 -34 0 -62 2 -62 4 0 3 7 12
16 20 22 22 67 20 89 -4z"/>
<path d="M4704 563 c-3 -16 -10 -44 -14 -63 -23 -100 -26 -90 30 -90 62 0 85
11 105 50 37 72 6 130 -70 130 -41 0 -45 -3 -51 -27z m94 -15 c33 -33 -8 -108
-60 -108 -26 0 -29 3 -25 23 3 12 9 39 12 60 6 32 11 37 34 37 15 0 32 -5 39
-12z"/>
<path d="M5170 580 c0 -5 7 -10 15 -10 8 0 15 5 15 10 0 6 -7 10 -15 10 -8 0
-15 -4 -15 -10z"/>
<path d="M5753 559 c-4 -21 -9 -27 -16 -20 -32 32 -97 -13 -97 -66 0 -47 16
-62 65 -61 40 0 46 3 51 27 3 14 10 42 14 61 4 19 11 47 14 63 5 20 3 27 -9
27 -9 0 -18 -12 -22 -31z m-25 -70 c3 -29 -20 -54 -43 -45 -18 6 -19 29 -4 57
14 27 43 20 47 -12z"/>
<path d="M5884 563 c-3 -16 -10 -44 -14 -63 -4 -19 -11 -47 -14 -62 -5 -21 -3
-28 9 -28 8 0 15 4 15 9 0 5 14 4 31 -2 28 -11 33 -10 55 16 43 51 24 125 -30
115 -25 -5 -27 -3 -22 18 5 17 2 24 -9 24 -8 0 -17 -12 -21 -27z m74 -68 c4
-28 -21 -60 -42 -52 -19 7 -21 48 -4 65 18 18 42 10 46 -13z"/>
<path d="M4881 524 c-52 -66 10 -148 75 -99 20 15 17 17 -30 19 -51 2 -43 26
8 26 42 0 46 2 46 24 0 56 -64 75 -99 30z m67 -21 c2 -9 -7 -13 -28 -13 -28 0
-31 2 -20 15 15 18 41 16 48 -2z"/>
<path d="M5026 537 c-26 -19 -16 -50 22 -66 17 -8 32 -18 32 -23 0 -12 -38
-10 -60 4 -27 17 -37 2 -15 -22 22 -24 67 -26 90 -4 23 23 15 47 -22 64 -45
21 -41 34 7 26 41 -6 50 0 28 22 -16 16 -60 15 -82 -1z"/>
<path d="M5150 498 c-6 -29 -14 -61 -17 -70 -3 -12 1 -18 11 -18 9 0 18 12 22
28 3 15 10 43 15 62 12 46 11 50 -5 50 -9 0 -18 -20 -26 -52z"/>
<path d="M5234 542 c-33 -22 -45 -100 -19 -122 9 -7 25 -10 41 -6 19 5 25 3
21 -6 -2 -8 -19 -12 -46 -11 -42 2 -50 -4 -29 -25 18 -18 73 -15 90 6 9 9 23
49 32 89 19 87 19 83 1 83 -8 0 -15 -5 -15 -10 0 -7 -6 -7 -19 0 -23 12 -42
13 -57 2z m56 -37 c10 -12 9 -20 -4 -40 -30 -46 -71 -20 -48 31 13 27 34 31
52 9z"/>
<path d="M5366 533 c-2 -10 -7 -34 -11 -53 -4 -19 -9 -43 -11 -52 -4 -12 0
-18 10 -18 9 0 18 12 21 28 10 47 30 77 54 80 22 4 23 1 17 -35 -4 -21 -9 -46
-12 -55 -4 -12 0 -18 10 -18 18 0 39 67 34 108 -4 33 -41 42 -69 16 -18 -16
-19 -16 -13 -1 4 11 1 17 -9 17 -9 0 -18 -8 -21 -17z"/>
<path d="M5521 524 c-52 -66 10 -148 75 -99 20 15 17 17 -30 19 -51 2 -43 26
8 26 42 0 46 2 46 24 0 56 -64 75 -99 30z m67 -21 c2 -9 -7 -13 -28 -13 -28 0
-31 2 -20 15 15 18 41 16 48 -2z"/>
<path d="M6025 474 c7 -71 6 -76 -14 -81 -25 -6 -28 -33 -3 -33 28 0 36 10 86
103 37 68 44 87 31 87 -9 0 -25 -20 -39 -50 -21 -45 -24 -48 -30 -28 -3 13 -6
35 -6 51 0 18 -5 27 -16 27 -14 0 -15 -10 -9 -76z"/>
</g>
</svg>
