<?xml version="1.0" standalone="no"?>
<!DOCTYPE svg PUBLIC "-//W3C//DTD SVG 20010904//EN"
 "http://www.w3.org/TR/2001/REC-SVG-20010904/DTD/svg10.dtd">
<svg version="1.0" xmlns="http://www.w3.org/2000/svg"
 width="2000.000000pt" height="2000.000000pt" viewBox="0 0 2000.000000 2000.000000"
 preserveAspectRatio="xMidYMid meet">

<g transform="translate(0.000000,2000.000000) scale(0.100000,-0.100000)"
fill="#000000" stroke="none">
<path d="M15596 10712 c-99 -34 -111 -40 -128 -72 -40 -73 -5 -225 71 -312 63
-72 93 -80 323 -78 112 1 231 5 266 8 l64 7 -63 84 c-35 47 -104 125 -153 175
-87 88 -251 227 -264 225 -4 0 -56 -17 -116 -37z"/>
<path d="M14050 10603 c-92 -35 -73 -173 24 -173 80 0 121 90 66 145 -26 25
-65 38 -90 28z"/>
<path d="M13119 10575 c-80 -43 -45 -165 47 -165 79 0 115 102 53 154 -34 29
-61 32 -100 11z"/>
<path d="M12785 10555 c-39 -38 -37 -88 6 -127 35 -34 67 -35 103 -7 39 31 49
63 32 104 -25 59 -97 75 -141 30z"/>
<path d="M12460 10550 c-45 -45 -37 -111 17 -143 90 -52 177 72 101 143 -29
27 -91 27 -118 0z"/>
<path d="M11845 10551 c-61 -26 -76 -100 -30 -146 53 -54 149 -15 149 59 0 60
-67 109 -119 87z"/>
<path d="M12135 10534 c-43 -46 -30 -110 26 -139 89 -47 171 76 97 145 -33 30
-92 27 -123 -6z"/>
<path d="M11165 10515 c-43 -43 -31 -111 26 -140 41 -22 93 -5 114 35 21 41
19 64 -11 99 -34 41 -92 44 -129 6z"/>
<path d="M11495 10515 c-56 -55 -18 -149 60 -149 80 0 120 100 60 151 -36 31
-88 31 -120 -2z"/>
<path d="M10846 10499 c-41 -48 -30 -106 24 -134 90 -46 175 68 104 139 -39
38 -93 36 -128 -5z"/>
<path d="M10235 10511 c-61 -26 -76 -100 -30 -146 26 -27 72 -33 107 -14 28
15 50 72 39 101 -18 47 -75 76 -116 59z"/>
<path d="M10526 10489 c-30 -35 -32 -58 -11 -98 42 -83 165 -49 165 46 0 80
-102 114 -154 52z"/>
<path d="M9914 10500 c-29 -12 -64 -58 -64 -85 0 -28 35 -74 67 -86 30 -11 87
11 102 39 27 50 7 106 -44 128 -19 8 -36 14 -37 13 -2 0 -13 -4 -24 -9z"/>
<path d="M9584 10490 c-30 -12 -54 -49 -54 -81 0 -43 45 -89 87 -89 45 0 93
45 93 89 0 59 -71 105 -126 81z"/>
<path d="M9239 10461 c-40 -40 -39 -82 1 -123 27 -26 36 -30 67 -25 47 8 72
33 80 80 5 31 1 40 -25 67 -41 40 -83 41 -123 1z"/>
<path d="M8921 10454 c-25 -20 -31 -34 -31 -64 0 -68 82 -113 136 -75 34 23
49 69 34 105 -26 63 -87 78 -139 34z"/>
<path d="M8305 10461 c-60 -25 -79 -102 -34 -146 38 -37 88 -37 124 0 43 42
31 111 -25 140 -32 17 -37 17 -65 6z"/>
<path d="M8590 10445 c-53 -57 -12 -149 66 -149 74 0 113 96 59 149 -34 35
-93 34 -125 0z"/>
<path d="M7949 10431 c-20 -20 -29 -39 -29 -61 0 -43 47 -90 90 -90 43 0 90
47 90 90 0 43 -47 90 -90 90 -22 0 -41 -9 -61 -29z"/>
<path d="M7328 10434 c-83 -44 -53 -164 41 -164 32 0 44 6 65 31 14 17 26 39
26 50 0 36 -29 77 -61 88 -39 13 -38 14 -71 -5z"/>
<path d="M7629 10421 c-20 -20 -29 -39 -29 -61 0 -43 47 -90 90 -90 43 0 90
47 90 90 0 43 -47 90 -90 90 -22 0 -41 -9 -61 -29z"/>
<path d="M6681 10426 c-55 -31 -65 -93 -22 -137 39 -38 88 -40 125 -3 37 37
35 86 -3 125 -32 31 -62 36 -100 15z"/>
<path d="M6989 10411 c-57 -58 -22 -151 58 -151 40 0 93 45 93 79 0 52 -48
101 -100 101 -12 0 -35 -13 -51 -29z"/>
<path d="M6335 10395 c-44 -43 -26 -124 32 -146 37 -14 90 6 108 41 21 41 19
64 -11 99 -34 41 -92 44 -129 6z"/>
<path d="M9265 8500 c-10 -11 -25 -20 -33 -20 -8 0 -77 -32 -152 -71 l-138
-71 -21 -72 c-12 -40 -27 -101 -33 -137 -15 -86 -14 -315 1 -414 17 -105 50
-241 65 -258 8 -11 49 -16 154 -21 131 -6 142 -5 142 11 0 10 14 25 33 33 91
43 150 265 151 575 0 224 -24 364 -76 438 -24 33 -66 36 -93 7z"/>
</g>
</svg>
